/* XPM */
static const char *sample_16_xpm[] = {
/* columns rows colors chars-per-pixel */
"16 16 92 1",
"h c #982628",
"n c #7A0206",
"7 c #3C0100",
"X c #843F3D",
"K c #78080E",
"/ c #A0696E",
"6 c #970403",
"D c #730107",
"J c #B4797D",
"9 c #900303",
"x c #923235",
"V c #E8D6D6",
"v c #330001",
"p c #890204",
"= c #AA2A28",
"S c #310002",
"R c #9E5D61",
"c c #922325",
"_ c #1E0002",
"@ c #481D1C",
"~ c #680009",
"s c #8A0607",
"I c #2D0002",
"z c #830205",
"< c #990604",
"[ c #510007",
"l c #810205",
"# c #300404",
"N c #974447",
"4 c #B75655",
"; c #290303",
") c #620009",
"{ c #4F0007",
"% c #A9221F",
": c #410100",
"^ c #741921",
"L c #BC8F91",
"B c #9D585B",
"G c #7B1116",
"| c #010000",
"k c #380001",
"2 c #980A09",
"m c #7B0207",
"d c #A24748",
"3 c #CC9F9F",
"P c #740107",
"j c #360001",
"E c #720A11",
"0 c #910303",
"& c #A8201D",
"b c #340002",
"a c #8A0204",
"' c #340005",
"Q c #210002",
"u c #390101",
"y c #8F0303",
"t c #920D0D",
"C c #B37375",
"} c #320004",
"F c #75050B",
"1 c #990504",
"e c #FCFCFC",
"M c #A76B6D",
"H c #8A2B30",
"T c #6E0108",
"A c #300002",
"> c #970503",
"* c #AA3A38",
"r c #D5A8A7",
"Y c #6C0108",
"U c #2E0003",
"w c #B47474",
"  c None",
"- c #A71E1C",
"! c #630009",
"] c #500007",
"g c #D6ACAC",
"W c #2A0003",
"( c #68010A",
". c #4D1F1E",
"i c #3B0001",
"+ c #833E3C",
"$ c #A81F1D",
"` c #020000",
"o c #86423F",
"O c #864240",
"Z c #7C0206",
"f c #EFE9E9",
"q c #920C0B",
"8 c #3E0101",
", c #990705",
"5 c #990706",
/* pixels */
"                ",
"                ",
"   .XoOOOOo+@   ",
"  #$%&$$*=&%-;  ",
"  :>,<1234<567  ",
"  8900qwert0yu  ",
"  ipaasdfghapj  ",
"  klzzzxeczzlv  ",
"  bnmMNBVCZZnA  ",
"  SDFGHJKLPPDI  ",
"  UYTTTTTRETYW  ",
"  Q!~~~~~^/()_  ",
"  `'][[[[[[{}|  ",
"                ",
"                ",
"                "
};
