/* XPM */
static const char *sample_48_xpm[] = {
/* columns rows colors chars-per-pixel */
"48 48 395 2",
";  c #C76865",
"E. c #B56868",
"s. c #270100",
".X c #240001",
"R  c #390100",
"X  c #0F0807",
"nX c #2D0001",
"/o c #ECE2E3",
"zX c #9D6F70",
"KX c #2D0002",
"3O c #3F0005",
")o c #A37175",
"&O c #480006",
"TX c #EFEFEF",
"e. c #870302",
";O c #510008",
"ko c #660107",
"OX c #840204",
"LX c #6F0106",
"#O c #5A0009",
"To c #630008",
"NX c #7B0206",
"C  c #9C0704",
"-. c #990604",
".O c #630009",
"o. c #990605",
"wo c #6F0108",
" O c #66010B",
"c. c #930D0D",
"P  c #A21512",
"A  c #A21513",
"Z. c #8D1717",
"x  c #A8201D",
"I. c #CAA2A3",
"s  c #B13532",
"3X c #8A4345",
"0  c #B74643",
"1  c #BA4744",
"ho c #D9C2C3",
"2o c #994B4F",
"4  c #BD514E",
":  c #BD5D5C",
".  c #050303",
"OO c #170002",
"JX c #200001",
"d. c #350101",
"XX c #320001",
"ao c #290002",
"-  c #C9706D",
"K  c #B47573",
"]o c #440006",
"Po c #EEEDED",
"Io c #9F777A",
"-O c #4D0008",
"m. c #830303",
":. c #8C0302",
"@. c #980402",
"1. c #950302",
">o c #6B0106",
"v. c #8C0303",
"iX c #800205",
"HX c #770206",
"+. c #980403",
"). c #890204",
"<o c #740107",
"~o c #680009",
"Vo c #6B0109",
"Q  c #9B0806",
"UX c #77050A",
"~  c #9E0C0B",
"=X c #8C0F11",
"j. c #8C1212",
"G  c #A11311",
"lX c #7D1316",
"k  c #A41714",
"c  c #A71E1B",
"F. c #921D1D",
"2X c #8F191C",
"(X c #89262A",
"i  c #B0302D",
"3o c #CCA7A9",
"5o c #83363A",
"%X c #9B3537",
"xX c #CFB1B2",
"6  c #BC4F4C",
"DX c #D2D0D0",
"$X c #D8D5D5",
"N  c #010000",
"u. c #DEDDDD",
"q. c #280100",
"6o c #A76669",
"Do c #1C0002",
"fX c #2E0001",
"o  c #100808",
"EX c #EAEAEA",
"5O c #400005",
"4O c #400006",
"{  c #910301",
"%O c #520008",
";X c #7C0204",
"vX c #730205",
"<. c #910302",
"W. c #880303",
"uX c #7C0205",
"@o c #B3797C",
"h. c #910303",
"so c #670107",
"BX c #7C0206",
"IX c #790106",
"7o c #700107",
"'  c #F6F4F4",
"<X c #850205",
"Ho c #640009",
"So c #670109",
"fo c #700108",
"(  c #9D0A08",
"`. c #8B0709",
"/  c #9D0A09",
"1o c #76060C",
"M  c #8B100D",
"i. c #FCFCFC",
"S  c #A31513",
"6. c #B69595",
"n  c #A61C19",
"`X c #852327",
"Uo c #70252B",
"e  c #AF2E2B",
"aX c #9A3F41",
"%o c #943D41",
"#  c #944644",
"B. c #974444",
"y. c #914B4A",
"T. c #DAC8C8",
"ZX c #D7CACA",
"GX c #9D5254",
"5. c #9A5756",
"R. c #D7CDCD",
"h  c #060000",
"%  c #C76966",
"bX c #210001",
"w. c #360100",
"0o c #2A0002",
"~. c #330001",
"|  c #8D0302",
"2. c #960302",
"-o c #6C0106",
"g. c #8D0303",
"8X c #780205",
"Y  c #990402",
"(. c #8A0204",
",X c #810205",
"MX c #780206",
"'X c #750106",
"jo c #6C0108",
"^X c #F5F5F5",
"t. c #900706",
"Oo c #750107",
"$O c #60000A",
"Jo c #690009",
"Co c #6C0109",
"x. c #F8F6F6",
"kX c #7B090C",
"9. c #960C0B",
"&. c #FEFEFE",
"F  c #A21311",
")  c #961816",
"]  c #9F1816",
"AX c #7E1C1F",
"ro c #781D22",
"m  c #A8211E",
".o c #7B2125",
"4. c #8D2A2A",
"oo c #8A292E",
"J  c #C1B5B5",
">  c #8D4240",
"WX c #C7BDBD",
"5  c #BD4F4D",
"Ao c #935055",
"(o c #E2D2D3",
"'o c #0B0000",
"^o c #966367",
"<O c #0B0001",
"Eo c #140001",
"}  c #290100",
"lo c #1D0002",
"O  c #0E0707",
"tX c #2F0001",
"7O c #260004",
"*  c #C96E6C",
"6O c #380005",
"RX c #F4EDED",
"A. c #EEEEEE",
"0. c #890302",
"Q. c #800303",
"E  c #920301",
"@O c #530008",
"&o c #AE7A7C",
"L. c #890303",
"oX c #7D0204",
"gX c #740205",
"Go c #5C0008",
"io c #680107",
"/. c #860204",
"=. c #980503",
"'. c #890305",
"X. c #980504",
",o c #710107",
"!o c #650009",
"Bo c #680109",
"Z  c #A1110F",
"<  c #6B2624",
"b  c #A71C1A",
"QX c #B1999A",
"*. c #A12322",
"a. c #C39F9F",
"r  c #B0312E",
"[. c #D5ABAB",
"vo c #833439",
"$  c #BF605D",
"H  c #9B6362",
"8O c #070000",
"+  c #040202",
"*O c #100001",
"T  c #190000",
"Ro c #190002",
"B  c #2B0000",
"!. c #250101",
"dX c #220001",
">. c #370100",
"_X c #EAE2E3",
"&  c #C86C6A",
":o c #2B0002",
"4X c #E7E7E7",
"oO c #3D0005",
"*X c #F6EFEF",
"f. c #850303",
"W  c #970301",
"mo c #640107",
"V  c #9A0402",
".. c #970302",
"{X c #6D0106",
"G. c #8E0303",
"eX c #820205",
"PX c #760106",
"w  c #4C1110",
"Lo c #A47E81",
"|X c #760107",
"$. c #970605",
"do c #6D0108",
"Ko c #6A0009",
"Yo c #6A030C",
"^  c #9D0B09",
"$o c #F9F9F9",
"@  c #3D1B1A",
"#X c #850C0E",
"I  c #A00F0D",
"q  c #581E1D",
"5X c #C58C8D",
"}. c #911618",
"P. c #8E1B1B",
"yo c #BF9396",
"z  c #A9211E",
"k. c #B09D9D",
"{. c #CE9B9B",
"p  c #AF2F2C",
"go c #C2A6A7",
"d  c #B23633",
"%. c #D4B2B2",
"_. c #C8B4B4",
"]. c #D7C8C8",
"9o c #1E0001",
"po c #1E0002",
"7X c #300001",
"Mo c #270003",
"g  c #390C0B",
"+O c #4B0007",
",. c #8A0302",
"K. c #810303",
"XO c #540008",
" X c #7E0204",
"sX c #750205",
";. c #930302",
"to c #F2F2F2",
"H. c #8A0303",
"`o c #5D0008",
"rX c #7E0205",
"3. c #960403",
"qo c #690107",
"|. c #8A0304",
"+X c #870204",
"jX c #7E0206",
"U  c #9C0604",
"O. c #990504",
"=o c #720107",
"}o c #660009",
"YX c #9D8384",
"eo c #720108",
"&X c #AF8384",
"_o c #69040D",
"no c #6F060D",
"U. c #8A1212",
"L  c #A21411",
"D  c #A21412",
"l  c #A81F1C",
"z. c #CD9C9C",
"y  c #B13431",
"D. c #904747",
"1X c #A24A4C",
"7  c #BD504D",
"*o c #A2595D",
"l. c #E5D7D7",
"wX c #AE6062",
"b. c #260100",
"J. c #260101",
"6X c #230001",
"Fo c #230003",
"[X c #2C0002",
"#o c #EEE3E4",
"=  c #C96F6D",
"Y. c #EBEBEB",
"=O c #470006",
"/X c #F4EBEC",
"CX c #9C7B7C",
":O c #500008",
"mX c #710205",
"r. c #8F0302",
">X c #7A0204",
"#. c #980302",
"]X c #6E0106",
"N. c #8F0303",
"xo c #650107",
"!X c #A57E7F",
"-X c #830204",
"0X c #830205",
"hX c #7A0206",
" o c #770107",
"[  c #9B0705",
"uo c #6E0108",
"cX c #7D0307",
"VX c #7A0207",
"FX c #FAF6F6",
")X c #B78184",
"7. c #FDFDFD",
"j  c #981210",
"qX c #AE8A8B",
"v  c #A71D1A",
"+o c #831D22",
"u  c #B0322F",
"8. c #DEBEBE",
"2  c #BC4E4C",
"4o c #A76265",
"   c None",
"Xo c #A46467",
"_  c #E1E0E0",
",O c #160002",
";o c #1F0001",
"zo c #280002",
"n. c #340101",
":X c #310001",
"1O c #280004",
"2O c #3A0005",
"bo c #EDEAEA",
">O c #4C0008",
"Wo c #550007",
"[o c #550008",
" . c #940302",
"8o c #6A0106",
"M. c #8B0303",
"^. c #7F0204",
"yX c #760205",
"Qo c #5E0008",
"No c #610108",
"C. c #8E0404",
"@X c #880204",
"9X c #7F0205",
"{o c #5E0009",
"co c #6A0108",
"}X c #730107",
",  c #311515",
"p. c #F6F6F6",
"|o c #67030C",
"SX c #79090D",
"!  c #9D0C0A",
"`  c #FFFFFF",
"pX c #B68E8F",
"f  c #AF2D2B",
"a  c #AF302C",
"t  c #B23734",
"Zo c #CBB9BA",
"V. c #DAB8B8",
"9  c #BB4C49",
"S. c #A94C4C",
"8  c #BE5350",
"3  c #BE5351",
"~X c #8E5B5D",
/* pixels */
"                                                                                                ",
"                                                                                                ",
"                                                                                                ",
"                                                                                                ",
"                                                                                                ",
"                                                                                                ",
"                        . X o o o o o o o o o o o o o o o o o o o o O +                         ",
"                    @ # $ % & * = = - - - - - - - - - - - - = = * & ; : > ,                     ",
"                  < 1 2 3 4 5 6 6 6 6 6 6 6 6 6 6 6 6 6 6 6 6 6 6 7 4 8 9 0 q                   ",
"                w e r t y u i p p p p p p p p p p p p p p p p p a i u s d p f g                 ",
"              h j k l z x l c v v b b b b b b b b n n n b b b v v c l x m v k M N               ",
"              B V C Z A S A D F F F F F F F F F G H J K G F F F L D S S P I U Y T               ",
"              R E W Q ! ~ ! ^ / ( ( ( ( ( ( ( ( ) _ ` ' ] ( ( ( ^ ^ ! ~ ^ [ W { }               ",
"              R |  ...X.o.O.+.@.#.#.#.#.#.#.#.#.$.%.` &.*.#.#.#.+.=.O.-.+...;.:.}               ",
"              >.,.<.1.2.2.3.2.2.2.2.2.2.2.2.1.4.5.6.7.8.9.2.2.2.2.2.3.2.2.1.<.0.q.              ",
"              w.e.r.;. . . . . . . . . . .t.y.u.i.&.` p.a.;. . . . . . . .;.r.e.s.              ",
"              d.f.g.h.h.h.h.h.h.h.h.h.h.j.k.l.z.i.` ` ` x.c.h.h.h.h.h.h.h.h.v.f.b.              ",
"              n.m.M.N.N.N.N.N.N.N.N.N.N.B.V.C.Z.A.` ` ` &.S.D.F.N.N.N.N.N.G.H.m.J.              ",
"              n.K.L.v.g.g.g.g.g.g.g.g.g.P.I.v.U.Y.` ` ` ` T.R.E.g.g.g.g.g.v.W.Q.!.              ",
"              ~.^./.(.(.(.(.(.(.(.(.(.(.)._.`.'.].` ` ` [.{.}.|.(.(.(.(.(.(./. X.X              ",
"              XXoXOX+X@X@X@X@X@X@X@X@X@X#X$X%X+X&X` ` *X=X@X@X@X@X@X@X@X@X+X-X;X.X              ",
"              :X>X,X<X<X<X<X<X<X<X<X<X<X<X1X2X3X4X` ` 5X<X<X<X<X<X<X<X<X<X<X,X>X6X              ",
"              7X8X9X0X0X0X0X0X0X0X0X0X0X0X0X0XqX` ` ` wX0X0X0X0X0X0X0X0X0XeXrX8X6X              ",
"              tXyXuXiXiXiXiXiXiXiXiXiXiXiXiXiXpX` ` ` aXiXiXiXiXiXiXiXiXiXiXuXsXdX              ",
"              fXgXhXjXjXjXjXjXjXkXlXjXjXjXjXjXzX&.` ` xXcXjXjXjXjXjXjXjXjXjXhXvXbX              ",
"              nXmXMXNXBXBXBXNXVXCXZXAXhXNXNXSXDX` FX` i.GXNXBXBXBXBXBXBXBXNXHXmXJX              ",
"              KXLXPXIXIXIXIXUXYXTXRXEXWXQX!X~X^X/X(X)Xi._X`XIXIXIXIXIXIXIXIX'X]XJX              ",
"              [X{X}X|X o o o.oXoooOo+o@o#o&.$oFX%o o|X&o&.*o o o o o o o o|X=o-o;o              ",
"              :o>o,o<o<o<o<o<o<o<o<o<o<o1o2o3o4o<o<o<o5o$o6o<o<o<o<o<o<o<o<o7o8o9o              ",
"              0oqowoeoeoeoeoeoeoeoeoeoeoeoeoeoeoeoeoeorotoyoeoeoeoeoeoeoeoeouoiopo              ",
"              aosodofofofofofofofofofofofofofofofofofowogohowofofofofofofofojokolo              ",
"              zoxocououououououououououououououououououovobonououououououodocomolo              ",
"              MoNoBoVoCoCoCoCoCoCoCoCoCoCoCoCoCoCoCoCoCoVoZoAoVoCoCoCoCoCoVoSoNoDo              ",
"              FoGoHoJoKoKoKoKoKoKoKoKoKoKoKoKoKoKoKoKoKoKoLoPoIoUoYoKoKoKoJoToGoRo              ",
"              EoWoQo!o~o~o~o~o~o~o~o~o~o~o~o~o~o~o~o~o~o~o^o/o(o)o_o~o~o~o!o`oWo'o              ",
"              N ]o[o{oHo}o}o}o}o}o}o}o}o}o}o}o}o}o}o}o}o}o|o O}o}o}o}o}o.OQoXOoO                ",
"                OO+O@O#O{o$O$O$O$O$O$O$O$O$O$O$O$O$O$O$O$O$O$O$O$O$O$O{o#O%O&O*O                ",
"                  lo=O-O;O@O@OXOXOXOXOXOXOXOXOXOXOXOXOXOXOXOXOXOXO@O@O:O>O]o,O                  ",
"                    <O1O2O3O4O3O3O3O5O5O5O5O5O5O5O5O5O5O5O5O5O3O3O4O3O6O7O8O                    ",
"                                                                                                ",
"                                                                                                ",
"                                                                                                ",
"                                                                                                ",
"                                                                                                ",
"                                                                                                ",
"                                                                                                ",
"                                                                                                ",
"                                                                                                "
};
