/* XPM */
static const char *sample_32_xpm[] = {
/* columns rows colors chars-per-pixel */
"32 32 214 2",
"1X c #5D0009",
"+X c #4A0006",
"m  c #7A0200",
"y  c #9F1E1C",
",. c #962C2F",
"R  c #7A0202",
"u. c #7A0206",
"*X c #8B4046",
"h  c #9C0B09",
"(. c #5B0006",
"f  c #970402",
"*. c #8E1214",
"V  c #970403",
"2X c #5B0009",
"G. c #730107",
"L. c #730108",
"U. c #A06669",
"-  c #C15957",
"P  c #FFFFFF",
"XX c #99686C",
"y. c #C19193",
"H  c #900302",
"W  c #900303",
"R. c #590005",
"c  c #DDB5B4",
";. c #710103",
"-X c #590008",
">X c #460006",
"+. c #890204",
"a  c #9F0C09",
"[  c #B47070",
"oX c #6A030C",
".  c #170B0B",
"K  c #D7CACA",
"#  c #432221",
"/. c #570006",
"O  c #4D2A29",
"!. c #77151B",
"8X c #440006",
"Q. c #6F0108",
"P. c #74050B",
")  c #8C0303",
"p. c #680005",
">  c #541F1D",
"&. c #DEBCBD",
",X c #550008",
"d. c #790308",
"3  c #AD2B28",
"k. c #8F4548",
"5  c #AD2B29",
"W. c #6D0108",
"=. c #850204",
">. c #850205",
"Z  c #9B4443",
"T  c #720201",
"5X c #090000",
"b  c #9B0907",
"$X c #660009",
"C  c #921414",
"[. c #530006",
"0. c #6B0104",
"]  c #8D0D0E",
"0X c #400006",
"%. c #D0B7B7",
"e  c #A31714",
"_  c #700202",
"+  c #4E2B2A",
"e. c #7C0408",
"4X c #070000",
"(  c #912D2D",
"}. c #640009",
"S  c #CF9898",
"M  c #810201",
"]. c #690108",
"A. c #EFE5E6",
"). c #690109",
"3. c #810205",
"qX c #2B0004",
"I  c #F2F2F2",
"{  c #8B0A0A",
"s. c #7A0106",
"v  c #9C0A08",
"n  c #970302",
"/  c #C07A7A",
"}  c #F0EFEF",
"w  c #A41815",
"9  c #7D0503",
":  c #B74D4A",
"~. c #DED0D0",
"f. c #A1787A",
"A  c #F0ECEC",
"Z. c #BC898B",
"B. c #903A3E",
"U  c #A33433",
"w. c #7D0206",
"I. c #7E181E",
"D. c #831C21",
"1  c #AF302D",
"M. c #760107",
"z. c #E3CBCC",
"g. c #F3F0F0",
"&  c #BA4E4B",
"x. c #BF8D90",
"o  c #4D2928",
"q. c #7B0206",
"N  c #930302",
"z  c #A74E4D",
"H. c #5C0005",
"%  c #602322",
"o. c #740103",
"8. c #952F32",
"<X c #5C0009",
"=X c #751A22",
"m. c #740107",
"S. c #EEE3E4",
"i. c #610104",
" . c #C29192",
"4  c #AD2A27",
"~  c #9A2D2D",
".X c #E7E2E2",
"#X c #5A0008",
"J  c #963C3C",
"D  c #960403",
"l  c #9B0806",
"k  c #9B0807",
"T. c #720108",
"#. c #C3A1A2",
"@X c #340005",
"`  c #770202",
"*  c #C05956",
"!  c #CA9C9C",
"1. c #F4F4F4",
"Y  c #8F0302",
"c. c #F9F8F8",
"<. c #8F3B3D",
"r  c #A31613",
"v. c #943F42",
"r. c #8D4143",
"9X c #450006",
"K. c #700108",
"$. c #880204",
"7. c #A46162",
"F  c #750201",
"Y. c #D0B0B1",
"8  c #350A09",
"E  c #8D0303",
"N. c #780F14",
"2  c #AE2E2B",
"|. c #690009",
"Q  c #912626",
"5. c #6E0104",
"d  c #860200",
"3X c #430006",
"O. c #860204",
"'. c #7E262D",
"g  c #9C0907",
":X c #0A0001",
"j  c #9C0908",
"&X c #6F141C",
"V. c #78060C",
"%X c #670009",
"=  c #C15A57",
"s  c #710503",
"X  c #452322",
"7X c #410006",
"p  c #A41714",
"^. c #6C0108",
"t. c #9B5D5F",
"q  c #A41715",
";X c #2E0003",
"_. c #6C0109",
"6X c #2E0004",
"`. c #B58D90",
"7  c #AC2825",
"<  c #AC2826",
"'  c #890303",
"n. c #650005",
"0  c #9F0D0A",
"   c None",
",  c #420D0B",
"{. c #520007",
"-. c #6A0103",
":. c #820205",
"L  c #FDFDFD",
"6  c #AF2F2C",
"i  c #AB413F",
"@. c #870608",
" X c #8F5257",
"l. c #CDBDBE",
"2. c #AC5759",
"@  c #4D2827",
"h. c #C0A2A3",
"OX c #630009",
"j. c #A16B6D",
"C. c #862227",
"4. c #680103",
".. c #8C0404",
"X. c #6D0202",
"^  c #F6F6F6",
"J. c #610006",
"G  c #7E0201",
"6. c #7E0205",
"B  c #960302",
"$  c #130909",
"|  c #ECE2E2",
"b. c #5F0004",
";  c #C05855",
"E. c #5F0006",
"x  c #FEFEFE",
"a. c #770106",
"9. c #640103",
"t  c #A31513",
"F. c #BE9698",
"u  c #B17876",
/* pixels */
"                                                                ",
"                                                                ",
"                                                                ",
"                                                                ",
"              . X o O + + + + + + + + + + O @ # $               ",
"            % & * = - = = = = = = = = = = - - ; : >             ",
"          , < 1 2 3 4 4 4 4 4 4 4 4 4 4 4 4 5 2 6 7 8           ",
"          9 0 q w e r t t t t t y u i t t r p w e a s           ",
"          d f g h j k l l l l l z x c l l k v h b n m           ",
"          M N B V B B B B B B C Z A S B B B D D B N F           ",
"          G H N N N N N N N J K L P I U N N N N N Y T           ",
"          R E W W W W W W Q ! ~ ^ P P / ( W W W W ) _           ",
"          ` ' ) ) ) ) ) ) ] [ { } P P |  ...) ) ) ' X.          ",
"          o.O.+.+.+.+.+.+.@.#.$.%.P &.*.$.+.+.+.$.=.-.          ",
"          ;.:.>.>.>.>.>.>.>.,.<.1.P 2.>.>.>.>.>.>.3.4.          ",
"          5.6.3.3.3.3.3.3.3.3.7.P P 8.3.3.3.3.3.3.6.9.          ",
"          0.q.w.w.w.e.r.w.w.w.t.x P y.w.w.w.w.w.w.u.i.          ",
"          p.a.s.s.d.f.g.h.j.k.l.z.x.c.v.s.s.s.s.s.a.b.          ",
"          n.m.M.M.N.B.V.C.Z.A.S.D.M.F.y.M.M.M.M.M.G.H.          ",
"          J.K.L.L.L.L.L.L.L.P.I.L.L.U.Y.T.L.L.L.L.K.R.          ",
"          E.W.Q.Q.Q.Q.Q.Q.Q.Q.Q.Q.Q.!.~.Q.Q.Q.Q.Q.^./.          ",
"          (.)._._._._._._._._._._._._.`.'._._._._.].[.          ",
"          {.}.|.|.|.|.|.|.|.|.|.|.|.|. X.XXXoX|.|.OX+X          ",
"          @X#X}.$X%X%X%X%X%X%X%X%X%X%X&X*X=X%X$X}.-X;X          ",
"          :X>X,X<X1X1X1X1X1X1X1X1X1X1X1X1X1X1X2X,X3X4X          ",
"            5X6X7X8X9X9X9X9X9X9X9X9X9X9X9X9X8X0XqX4X            ",
"                                                                ",
"                                                                ",
"                                                                ",
"                                                                ",
"                                                                ",
"                                                                "
};
