/* XPM */
static const char *sample_64_xpm[] = {
/* columns rows colors chars-per-pixel */
"64 64 570 2",
"&@ c #090001",
"mX c #E6E6E6",
"+X c #600201",
"j. c #7B0200",
"yo c #660103",
"1X c #720202",
"S  c #390D0D",
"T+ c #510007",
"!+ c #510008",
"#X c #870303",
"4o c #7B0204",
"$. c #990301",
"Q. c #900302",
"L+ c #5A0008",
"X+ c #660107",
"wO c #6F0106",
"Eo c #720206",
"SX c #870304",
"{X c #840204",
"vo c #7B0205",
";X c #F8F2F2",
"4X c #900303",
"d+ c #630008",
";+ c #F5F4F4",
"TO c #6F0107",
"Uo c #7B0206",
"0o c #840205",
"n. c #990604",
"U+ c #630009",
"9+ c #660109",
"[O c #6F0108",
"&O c #780107",
"BO c #750309",
"{o c #75060A",
"Vo c #7B0509",
"jO c #F8F8F8",
"Lo c #780A0D",
"[o c #750C10",
"PX c #FEFDFD",
"O. c #A2120F",
"-O c #9D9091",
"}  c #A51916",
"{  c #A51917",
"K  c #AB2725",
"@o c #CDA3A3",
"=X c #B2ACAC",
"'X c #D9B3B3",
"/. c #8A4645",
"O  c #964D4B",
"d  c #BA4A47",
"YO c #964A4E",
"VO c #994B4F",
"{O c #904E52",
"HX c #D3CFCF",
"0  c #C05855",
"~  c #050000",
"2  c #C66663",
"6  c #C66966",
".  c #0E0606",
"O@ c #290004",
"D. c #650200",
"Ro c #AB7274",
"CX c #5C0202",
"q+ c #440005",
"bO c #4D0004",
"|X c #590103",
"$O c #5F0004",
"Go c #620104",
"ZX c #6E0203",
" o c #6B0103",
"X@ c #4D0008",
"kX c #830303",
"G. c #8C0302",
"JO c #6B0106",
"3o c #800204",
"go c #770205",
"~. c #950302",
">X c #8C0303",
" @ c #560009",
"k+ c #5F0008",
"1+ c #620108",
"fo c #800205",
"L. c #980403",
"_X c #890204",
"Y+ c #5F0009",
"o+ c #6B0108",
"qO c #740107",
"Co c #A28182",
"t+ c #680009",
"8+ c #6B0109",
"5. c #9E0907",
"O+ c #6E050C",
"}. c #8C0C0B",
"r. c #9E0C0A",
".X c #FAFAFA",
"PO c #770B11",
";. c #A11311",
"a+ c #6E1A21",
"P  c #AA2522",
"l  c #B0302D",
"A  c #B0302E",
"m  c #B0332F",
"N  c #B03330",
"*X c #863737",
"z  c #B33735",
"TX c #A13A3B",
"XO c #D8BDBE",
"qX c #E1C9C9",
")o c #896263",
"bX c #E1D5D5",
"e  c #010000",
"+@ c #250003",
"kO c #AD6B6F",
"'o c #9E7274",
"[. c #610201",
"g+ c #400005",
"ho c #550103",
" + c #490005",
"@X c #730201",
"o@ c #490007",
"HO c #5B0005",
"F+ c #520007",
"OX c #880302",
"K+ c #520008",
"*o c #7C0204",
"Y. c #910302",
"cX c #880303",
"|O c #670107",
"@O c #700106",
"Ho c #730206",
"lo c #7C0205",
"%X c #910303",
"0X c #F3F3F3",
"~X c #850204",
"r+ c #640008",
"FO c #700107",
"+O c #790106",
"Ko c #7C0206",
"0. c #9A0604",
"^. c #910605",
"zo c #7F0306",
"b+ c #640009",
"2+ c #670109",
"/O c #700108",
"*O c #790107",
"C. c #9A0605",
"IX c #F9F5F5",
"(o c #76060A",
"f. c #9D0A08",
"S+ c #6A0810",
"i. c #FCFCFC",
"). c #A48C8C",
")  c #A31512",
"KO c #791016",
"`  c #A61C19",
":+ c #76181E",
"fO c #821C21",
"R  c #A92320",
"vX c #912A2A",
":. c #913635",
"Z  c #B23532",
"1O c #BCB5B5",
"<. c #C5B5B5",
"s  c #BB4A48",
"#  c #9A5452",
",  c #B5514E",
"hX c #9A5757",
"iX c #9D5B5B",
"UO c #DADADA",
")X c #AF6465",
"4  c #C76966",
"5  c #C76967",
"lO c #A66A6D",
"M+ c #2A0003",
"[+ c #330004",
"6. c #5A0100",
"-@ c #3C0005",
"eO c #4E0003",
"Wo c #510103",
"lX c #5D0202",
",O c #ECECEC",
"WX c #5A0103",
"@@ c #450006",
"zX c #6F0202",
"F. c #780201",
".+ c #570006",
"7O c #AF7679",
"}+ c #4E0008",
"tX c #840303",
",+ c #630107",
"mO c #6C0106",
"J. c #960302",
"$X c #8D0303",
";o c #810204",
"uo c #780205",
"_+ c #570009",
"D+ c #600008",
"Jo c #780206",
"/X c #8A0204",
"po c #810205",
"P+ c #600009",
"]O c #6C0108",
"%O c #750107",
" O c #F5F5F5",
"}o c #780207",
"VX c #8D0606",
"u+ c #690009",
"4+ c #6C0109",
"ZO c #F8F6F6",
"&. c #9F0C09",
"y. c #9C0B09",
"5+ c #6C0A11",
"Po c #9A8D8D",
"B. c #FEFEFE",
"v+ c #6C0D15",
"3. c #A21311",
"[  c #A51A17",
"o. c #A51A18",
"F  c #A21C19",
"C+ c #BB9296",
"MX c #C1A0A0",
"J  c #AB2825",
"]X c #962728",
"}O c #C7A5A7",
"n  c #B13330",
"3O c #B8AFAF",
"x  c #B43A37",
"NX c #C7C0C0",
"9O c #D3C4C5",
"&  c #995250",
"f  c #BD4F4D",
"XX c #D0CFCF",
"+o c #D3D3D3",
"-+ c #93595D",
"1  c #C3605D",
"hO c #E5D6D7",
"_. c #DCD9D9",
"6+ c #DFDDDD",
"H+ c #0B0001",
"]+ c #1D0002",
">O c #EEE2E3",
"h+ c #410005",
"EO c #4A0004",
"oO c #EEEBEB",
"to c #560103",
"'O c #4A0005",
"7. c #7D0200",
"_o c #EEEEEE",
"6o c #680103",
"{+ c #4A0007",
"nO c #5C0005",
"<+ c #530007",
"]. c #890302",
"|+ c #530008",
")O c #AE777B",
"jX c #890303",
"EX c #800304",
".o c #7D0204",
"H. c #920302",
"`O c #680107",
"`o c #F4F3F3",
"!o c #710106",
"Do c #740206",
"oo c #860204",
"io c #7D0205",
"M. c #980503",
"&X c #920303",
")+ c #5C0009",
">+ c #680108",
"MO c #710107",
"^o c #7A0106",
"No c #7D0206",
"ao c #800306",
"l+ c #650009",
"~O c #710108",
"GX c #890607",
"7+ c #AB7F83",
"IO c #71070C",
"KX c #89090A",
"w  c #411B19",
"w. c #9E0D0B",
"4O c #FDFCFC",
"d. c #9E0D0C",
"4. c #A1110F",
"P. c #981413",
"`X c #B78C8D",
"!  c #951916",
";  c #472322",
"u. c #AB9493",
"wo c #C38D8E",
"1. c #A11A18",
"AO c #C39698",
"aO c #BD9A9B",
"I  c #AA2321",
"]o c #7D2F32",
"k  c #B0312E",
"oX c #9E3434",
"c  c #B33835",
"y  c #B94643",
"5O c #9B484C",
"p  c #BC4D4A",
"so c #C9C8C8",
"$  c #9B5453",
"|o c #895456",
"`. c #E4CBCB",
"2o c #E4CBCC",
"6X c #D5D5D5",
"LX c #DBD7D7",
"I. c #E4DADA",
"8  c #C56562",
"A+ c #9E6167",
":  c #070303",
"*@ c #220003",
"sX c #E7E7E7",
"Z+ c #A46C71",
"m+ c #340004",
"=@ c #340005",
"h. c #670200",
";@ c #3D0005",
"#O c #4F0003",
"Fo c #520103",
"eX c #5E0202",
"pX c #F0EAEA",
"jo c #640103",
"rX c #700202",
"Qo c #610004",
"no c #640104",
"QX c #6D0103",
"w+ c #4F0007",
"2X c #850303",
"9. c #970301",
"S. c #8E0302",
"n+ c #580008",
"*+ c #640107",
"vO c #6D0106",
"&o c #820204",
"ro c #790205",
"g. c #9A0402",
"Z. c #970302",
"uX c #8E0303",
"~+ c #580009",
"N+ c #610008",
"~o c #760106",
"So c #790206",
":o c #850305",
"eo c #820205",
"_O c #6D0108",
"uO c #760107",
"b. c #9A0705",
"/+ c #61000A",
"y+ c #6A0009",
"c. c #9A0706",
"UX c #F9F6F6",
"s+ c #67020B",
"6O c #79050A",
"+. c #A00C09",
"q. c #9D0B09",
"dX c #F9F9F9",
"SO c #730F14",
"h  c #581E1C",
"Oo c #821416",
">  c #552322",
"JX c #91191A",
"aX c #8B1D1D",
" . c #9A1F1D",
"H  c #A9211E",
"T  c #A9211F",
"qo c #B0A0A0",
"DO c #822026",
"OO c #852427",
"(X c #BFABAC",
"v  c #B23632",
"B  c #B23633",
"7X c #D7ADAD",
"9X c #9A3737",
"(O c #C5B6B7",
"t  c #B84441",
"a  c #BB4B48",
"g  c #BB4B49",
"@  c #9A5250",
"++ c #D4CACA",
"gX c #8B5656",
"s. c #B25453",
"$o c #94595A",
">o c #A65658",
"<  c #C15956",
"2O c #915B5D",
"1o c #D7D7D7",
"E+ c #030000",
"D  c #120202",
"YX c #B56768",
"G+ c #1E0002",
"@. c #360201",
"BX c #ECE4E4",
"^  c #4E0402",
";O c #E9E9E9",
"R. c #630201",
"5o c #570103",
"{. c #750201",
"-o c #690103",
"'+ c #4B0007",
"rO c #5D0005",
"#@ c #4B0008",
"8. c #930301",
"W. c #8A0302",
"}X c #7E0204",
"A. c #930302",
"yX c #8A0303",
"AX c #810304",
"f+ c #5D0008",
"QO c #690107",
"mo c #750206",
"m. c #990503",
"!. c #960403",
"DX c #8A0304",
"#o c #870204",
"^+ c #5D0009",
"=+ c #690108",
"cO c #720107",
"/o c #7B0106",
"Bo c #7E0206",
"x. c #990504",
"I+ c #660009",
"^O c #720108",
"NO c #750208",
"j  c #541513",
"=O c #75080D",
"zO c #FBFBFB",
"-. c #A21411",
"=. c #A21412",
"]  c #A51B18",
"Yo c #781B1E",
"G  c #A81F1C",
"Q  c #A81F1D",
"fX c #962222",
"L  c #AB2623",
"z+ c #B29FA1",
"W  c #AB2624",
".. c #962B29",
"b  c #B13431",
"-  c #7B3D3C",
"pO c #7E383C",
"%o c #A24143",
"<o c #84494A",
"*  c #99504E",
"<O c #C7C7C7",
"+  c #99504F",
"i  c #BD504D",
"8X c #B45C5C",
"9  c #C35E5B",
"do c #AE6364",
"7  c #C66865",
"3  c #C66866",
"x+ c #E2E2E2",
"<X c #5F0201",
"bo c #530103",
"#. c #710200",
"%+ c #470005",
".O c #F4EBEB",
"R+ c #470006",
"WO c #590006",
"U. c #C37978",
"`+ c #500008",
"k. c #8F0302",
",X c #860303",
"j+ c #590008",
"$+ c #650107",
"tO c #6E0106",
"%. c #9B0402",
"z. c #980302",
"3X c #8F0303",
"RX c #860304",
"Xo c #830204",
"7o c #7A0205",
".@ c #590009",
"9o c #830205",
"Mo c #7A0206",
"!O c #6E0108",
"iO c #770107",
"(+ c #62000A",
"8O c #FAF9F9",
"V. c #C68383",
"e. c #9E0E0C",
"(  c #A10F0C",
"a. c #FDFDFD",
"2. c #A1120F",
"*. c #A11210",
"0O c #7D1217",
"nX c #891919",
"|  c #A41916",
"X. c #A11B18",
"N. c #BD9594",
"X  c #502726",
"dO c #80161C",
"'. c #981E1D",
":X c #C99695",
"E  c #AA2421",
"c+ c #AEA2A3",
"M  c #B0322F",
"V  c #B33935",
"o  c #80403F",
"C  c #B33937",
">. c #BAB8B8",
"q  c #AD4C4A",
"u  c #BC4E4B",
"%  c #9B5554",
",o c #AA5758",
",. c #DBDBDB",
"   c None",
"(. c #9B6D6D",
",@ c #1F0003",
" X c #E4E4E4",
"gO c #AA696D",
"W+ c #280004",
"Io c #A16F71",
">@ c #310004",
":@ c #3A0005",
"GO c #4C0004",
"=o c #580103",
"%@ c #430006",
"-X c #EDEDED",
"E. c #760201",
"J+ c #4C0006",
"Q+ c #4C0007",
"&+ c #550006",
"$@ c #4C0008",
"T. c #8B0302",
"xX c #820303",
"RO c #6A0106",
"l. c #940302",
"wX c #8B0303",
"!X c #7F0204",
"ko c #760205",
"e+ c #5E0008",
"0+ c #610108",
"FX c #8B0304",
"^X c #880204",
"8o c #7F0205",
"K. c #970403",
"#+ c #6A0108",
"yO c #730107",
"B+ c #670009",
"3+ c #6A0109",
"v. c #9A0806",
"Ao c #7F080C",
"/  c #A00D0A",
"t. c #9D0C0A",
":O c #FCFBFB",
"p. c #FFFFFF",
"'  c #A61B18",
"_  c #A61B19",
"p+ c #AD9798",
"r  c #732826",
"[X c #941E20",
"Y  c #A9221F",
"U  c #A92220",
"i+ c #B9A7A8",
"xO c #88292E",
"CO c #CBA7A9",
"5X c #883838",
"xo c #C8B5B5",
"=  c #944B4A",
"sO c #9A4A4E",
"V+ c #8B4E53",
"Zo c #DDCECE",
"LO c #9D5458",
"co c #A35658",
"To c #D4D4D4",
"|. c #916564",
"@+ c #E3D6D7",
/* pixels */
"                                                                                                                                ",
"                                                                                                                                ",
"                                                                                                                                ",
"                                                                                                                                ",
"                                                                                                                                ",
"                                                                                                                                ",
"                                                                                                                                ",
"                                                                                                                                ",
"                                                                                                                                ",
"                            . X o O + @ # $ % % % % % % % % % % % % % % % % % % % % $ # & * = - ; :                             ",
"                          > , < 1 2 3 4 4 5 5 5 5 5 5 5 5 5 5 5 5 5 5 5 5 5 5 5 5 5 5 4 6 7 8 9 0 q w                           ",
"                      e r t y u i p a s d d d d d d d d d d d d d d d d d d d d d d d d s a p f g t t h                         ",
"                      j k l z x c v b n m M M M M M M M M M M M M M M M M M M M M M M N n b B V C Z l A S                       ",
"                    D F G H J K L P I U Y T T H H H H H H H H H H H H H H H H H H T T Y R E P L K W G Q ! ~                     ",
"                    ^ / ( ) _ ` ` ' ] [ { } } } } } } } } } } } } |  ...X.} } } } } } { [ ' _ ` ` o.O.( +.@.                    ",
"                    #.$.%.&.*.=.=.=.-.;.*.*.*.*.*.*.*.*.*.*.*.*.*.:.>.,.<.1.*.2.*.*.*.*.3.=.=.=.3.4.5.%.$.6.                    ",
"                    7.8.9.0.q.w.e.e.w.r.t.q.q.q.q.q.q.q.q.q.q.q.y.u.i.p.a.s.q.q.q.q.q.t.r.w.e.d.w.f.g.9.8.h.                    ",
"                    j.k.l.z.x.c.v.c.b.n.x.m.m.m.m.m.m.m.m.m.m.m.M.N.B.p.p.V.m.m.m.m.m.x.C.b.v.v.b.m.Z.A.S.D.                    ",
"                    F.G.H.J.Z.K.L.L.K.Z.Z.Z.Z.Z.Z.Z.Z.Z.Z.Z.Z.Z.J.P.I.p.p.U.Z.Z.Z.Z.Z.Z.K.K.L.K.Z.Z.J.Y.T.R.                    ",
"                    E.W.Q.l.J.J.J.!.J.J.J.J.J.J.J.J.J.J.J.~.^./.(.)._.p.`.'.~.J.J.J.J.J.J.J.J.J.J.~.l.k.].[.                    ",
"                    {.].k.A.l.l.l.l.l.l.l.l.l.l.l.l.l.l.l.}.|. X.Xa.p.p..XXXoXl.l.l.l.l.l.l.l.l.l.l.H.S.OX+X                    ",
"                    @X#X$X%X&X&X&X&X&X&X&X&X&X&X&X&X&X%X*X=X-X;Xp.p.p.p.p.p.:X&X&X&X&X&X&X&X&X&X&X&X%X>X,X<X                    ",
"                    1X2X>X3X%X%X%X%X%X%X%X%X%X%X%X%X4X5X6X7X8X9X0Xp.p.p.p.p.qX3X4X4X4X%X%X%X%X%X%X4X3XwX2XeX                    ",
"                    rXtXyXuX3X3X3X3X3X3X3X3X3X3X3X3X3XiXpX$X3XaXsXp.p.p.p.p.dXfXgXhXuX3X3X3X3X3X3X3X$XjXkXlX                    ",
"                    zXxXcX>X$X$X$X$X$X$X$X$X$X$X$X$X$XvXbX>X$XnXmXp.p.p.p.p.B.MXNXBXVX$X$X$X$X$X$X$X>X#XxXCX                    ",
"                    ZXAXSXDXFXFXFXFXFXFXFXFXFXFXFXFXFXGXHXJXFXKXLXp.p.p.p.PXIXUXYXTXFXFXFXFXFXFXFXFXDXRXEXWX                    ",
"                    QX!X~X^X/X/X/X/X/X/X/X/X/X/X/X/X/X^X(X)X_X_X`XB.p.p.p.'X]X[X_X/X/X/X/X/X/X/X/X_X^X{X}X|X                    ",
"                     o.oXooo^X^X^X^X^X^X^X^X^X^X^X^X^XOo+o@o#oRX$odXp.p.p.%o#o^X^X^X^X^X^X^X^X^X^X#ooo&o*o=o                    ",
"                    -o*o;o~Xoooooooooooooooooooooooooo:o>o,o~X<o1oa.p.p.2o{Xoooooooooooooooooooooooo{X3o4o5o                    ",
"                    6o7o8o9o0o0o0o0o0o0o0o0o0o0o0o0o0o0o0o0o9oqoB.p.p.p.wo9o0o0o0o0o0o0o0o0o0o0o0o0oeo8oroto                    ",
"                    youoiopoeoeoeoeoeoeoeoeoeoeoeoeoeoeoeoeoaosop.p.p.p.doeoeoeoeoeoeoeoeoeoeoeoeoeofoiogoho                    ",
"                    jokolo8ofofofofofofofofofofofofofofofofozoxop.p.p.p.cofofofofofofofofofofofofofo8ovokobo                    ",
"                    nomoMoNoBoBoBoBoBoBoBoBoVoNoBoBoBoBoBoBoNoCoa.p.p.p.ZoAoBoBoBoBoBoBoBoBoBoBoBoBoNoSoDoFo                    ",
"                    GoHoJoKoNoNoNoNoNoNoKoLoPoIoUoKoNoNoNoKoYoTop.p.p.p.i.RoKoNoNoNoNoNoNoNoNoNoNoNoUoJoEoWo                    ",
"                    Qo!o~o^o/o/o/o/o/o^o(o)o_o`o'o]o[o{o}o^o|o Op..OXOB.p.oOOO^o/o/o/o/o/o/o/o/o/o/o+O~o@O#O                    ",
"                    $O@O%O&O*O*O*O*O*O=O-O;O:O>OdX,O6X<O1O2O3OB.4O5O6O7O8Op.9O0O*O*O*O*O*O*O*O*O*O*O&OqOwOeO                    ",
"                    rOtOyOuOiOiOiOiOiOpOaOsOdO%OfOgOhOB.p.jO.Xp.kOuOiOuOlOzOa.xOiOiOiOiOiOiOiOiOiOiOuOcOvObO                    ",
"                    nOmOMOqO%O%O%O%O%ONOBO%O%O%O%O%OBOVOCOZOp.AOqO%O%O%OSO Xa.DO%O%O%O%O%O%O%O%O%O%OqOFOmOGO                    ",
"                    HOJOFOyOqOqOqOqOqOqOqOqOqOqOqOqOqOyOyOKOLOPOyOqOqOqOIOUOB.YOyOqOqOqOqOqOqOqOqOqOcOTOROEO                    ",
"                    WOQO!O~O^O^O^O^O^O^O^O^O^O^O^O^O^O^O^O^O^O^O^O^O^O^O/O(Op.)O~O^O^O^O^O^O^O^O^O^O~O_O`O'O                    ",
"                    WO`O]O[O/O/O/O/O/O/O/O/O/O/O/O/O/O/O/O/O/O/O/O/O/O/O/O{OdX}O[O/O/O/O/O/O/O/O/O/O[O]O|O +                    ",
"                    .+X+o+!O[O[O[O[O[O[O[O[O[O[O[O[O[O[O[O[O[O[O[O[O[O[O[OO+++@+_O[O[O[O[O[O[O[O[O[O_O#+$+%+                    ",
"                    &+*+=+]O_O_O_O_O_O_O_O_O_O_O_O_O_O_O_O_O_O_O_O_O_O_O_O_O-+;+:+_O_O_O_O_O_O_O_O_O]O>+,+%+                    ",
"                    <+1+2+3+4+4+4+4+4+4+4+4+4+4+4+4+4+4+4+4+4+4+4+4+4+4+4+4+5+6+7+3+8+4+4+4+4+4+4+4+3+9+0+q+                    ",
"                    w+e+r+t+y+y+y+y+y+y+y+y+y+y+y+y+y+y+y+y+y+y+y+y+y+y+y+y+u+i+ Op+a+s+y+y+y+y+y+y+t+d+f+g+                    ",
"                    h+j+k+l+t+u+u+u+u+u+u+u+u+u+u+u+u+u+u+u+u+u+u+u+u+u+u+u+t+z+p.a.x+c+v+u+u+u+u+t+b+e+n+m+                    ",
"                    M+<+j+N+l+B+B+B+B+B+B+B+B+B+B+B+B+B+B+B+B+B+B+B+B+B+B+B+B+V+C+Z+A+S+B+B+B+B+B+l+D+n+F+G+                    ",
"                    H+J+K+L+P+b+l+I+I+I+I+I+I+I+I+I+I+I+I+I+I+I+I+I+I+I+I+I+I+I+I+I+I+I+I+I+I+l+U+Y+j+T+R+E+                    ",
"                      W+Q+!+~+^+Y+/+/+/+(+(+(+(+(+(+(+(+(+(+(+(+(+(+(+(+(+(+(+(+(+(+(+(+/+/+/+Y+)+_+`+'+]+                      ",
"                      e [+{+}+|+ @~+.@.@.@.@.@.@.@.@.@.@.@.@.@.@.@.@.@.@.@.@.@.@.@.@.@.@.@.@~+ @K+X@o@O@                        ",
"                        e +@@@o@#@X@X@}+}+}+}+}+}+}+}+}+}+}+}+}+}+}+}+}+}+}+}+}+}+}+}+}+X@X@$@#@o@%@G+                          ",
"                            &@*@=@-@;@;@;@-@-@;@;@;@;@;@;@;@;@;@;@;@;@;@;@;@;@;@;@-@-@;@;@;@:@>@,@~                             ",
"                                                                                                                                ",
"                                                                                                                                ",
"                                                                                                                                ",
"                                                                                                                                ",
"                                                                                                                                ",
"                                                                                                                                ",
"                                                                                                                                ",
"                                                                                                                                ",
"                                                                                                                                ",
"                                                                                                                                ",
"                                                                                                                                ",
"                                                                                                                                "
};
